<svg id="Layer_1" data-name="Layer 1" xmlns="http://www.w3.org/2000/svg" viewBox="0 0 512 512"><defs><style>.cls-1{fill:#333;}</style></defs><path class="cls-1" d="M408.94,216.21a2.06,2.06,0,0,0-3.18,1.45l-.88,7.24a5,5,0,0,0-1-.06,77.79,77.79,0,0,0-14.49,1.54,82.38,82.38,0,0,0-41.08,21.48,47.74,47.74,0,0,0,6.88,9.13c.55.57,1.12,1.15,1.72,1.67a59.36,59.36,0,0,1,11.13-9.18A69.09,69.09,0,0,1,391.24,240a66.23,66.23,0,0,1,12-1.4l-.6,4.85a2,2,0,0,0,3,2l22.52-12.94a2,2,0,0,0,.11-3.48Z"/><path class="cls-1" d="M170.77,391.82a80.8,80.8,0,0,1-69.84-96.21c1.51-7.75-10.37-11.07-11.89-3.28-10.7,54.93,26.31,105.27,81.73,111.82C178.63,405.08,178.57,392.74,170.77,391.82Z"/><path class="cls-1" d="M485.67,159.68A259.73,259.73,0,0,0,431,80a263.17,263.17,0,0,0-79.66-54,238.65,238.65,0,0,0-192,.33A261,261,0,0,0,80,81a263.64,263.64,0,0,0-54,79.69A233.83,233.83,0,0,0,6,256q0,52.65,20.66,98.32a260.33,260.33,0,0,0,55,79.33,255.84,255.84,0,0,0,79.66,53A239.06,239.06,0,0,0,256,506a253,253,0,0,0,96.68-21.32A262,262,0,0,0,432,431a255.48,255.48,0,0,0,54-78.65q20-45,20-96.32A234.64,234.64,0,0,0,485.67,159.68ZM441,303.74a79.12,79.12,0,0,1-54.45,29c-10.19.85-13.45,3.73-16,14.06-9.18,37.59-36.78,61.52-72.6,63.3-1.45.11-2.9.14-4.38.14a88.85,88.85,0,0,1-14-1.13c-2-.3-6.8-1-8.83-7l-.9-2.66,6.47-9c3.67-5.15,7.48-10.47,11.26-15.81.49-.71.9-1.37,1.29-2a577.33,577.33,0,0,0,37.9-62.18c5.37-10.22,10.05-21.26,15.75-31.51-1-.88-2-1.78-3-2.71a74.57,74.57,0,0,1-6.94-7.68c-4.79,8.36-8.71,17.27-13,25.87q-9.87,19.69-21.29,38.61-8.88,14.72-18.69,28.91A27.42,27.42,0,0,0,275,367.5c-14,21.21-31,36.18-50.69,44.75A106.67,106.67,0,0,1,180.83,421,133.56,133.56,0,0,1,163,419.76c-45.27-6.08-77.14-32.64-92.15-76.81C59,308.2,64.18,273.48,85.72,242.33a53.11,53.11,0,0,0,14.74,14,33.55,33.55,0,0,0,19.62,4.85,41.08,41.08,0,0,0,15.7-4.14c23.38-11.26,30.61-38.28,46.86-56.53a104.52,104.52,0,0,1,25.24-20.69c12.88-7.1,26-10.74,39-10.74,14.44,0,28.44,4.35,41.81,13A5.36,5.36,0,0,0,290,183a110.29,110.29,0,0,1,12,9.31c.33.31.69.61,1,.94a34.77,34.77,0,0,1,9.1,11.59l.25.52c5.31,11.54,7.56,24.25,11.86,36.14,4.2,11.57,10.17,22.15,19.1,30.75a79.3,79.3,0,0,0,28.94,17.57,71,71,0,0,0,16,3.59,77.15,77.15,0,0,0,11.29.38l.65,6.9a2.06,2.06,0,0,0,3.43,1.35l13.62-12.36.16-.14,1.95-1.64a1.26,1.26,0,0,0,.38-.5l.11-.11,3-2.71a2,2,0,0,0-.63-3.42l-21.65-8.42a2.06,2.06,0,0,0-2.8,2.11l.5,5.37a59.91,59.91,0,0,1-7.81-.27,64.86,64.86,0,0,1-39.22-19.15c-17-17.62-17.59-43.6-28.17-64.7-5-9.95-12.11-18.45-21.62-23.93-1.73-1-3.45-2-5.15-3a97.67,97.67,0,0,0-84.08-8.66l-6.41,3.78c-5,3-10.25,6-15.15,9.27-3.1,2-5.18,4.16-6,6.11a130,130,0,0,0-26.53,31.59c-5.89,9.68-11.29,20-19.84,27.68-5,4.47-11.42,8-18.08,8.63a20,20,0,0,1-8.64-1c-8.68-3.05-14.63-11.18-19.42-19a29,29,0,0,0-.14-5.92A78.36,78.36,0,0,1,166.72,134c1,0,2-.05,3-.05a80.18,80.18,0,0,1,17.78,2,33.39,33.39,0,0,0,7.24,1c4.27,0,7.51-1.32,11.51-8.14a78.2,78.2,0,0,1,40.72-34.39,76.47,76.47,0,0,1,26.5-4.69,79.14,79.14,0,0,1,20.19,2.63,77.62,77.62,0,0,1,49.88,40.26,83,83,0,0,1,8.69,32.58c.08,1.12.16,2.11.24,3a40.81,40.81,0,0,1-12.77,13.21c-6.63,4.33-.46,15,6.22,10.66a53.85,53.85,0,0,0,15-14.55,52.68,52.68,0,0,0,5.32-.6c2.43-.39,4.9-.63,7.34-.8,1.89-.13,3.78-.19,5.65-.19,40.5,0,73.55,29.95,78.59,71.25C460.24,267,454.1,287.62,441,303.74Z"/></svg>