<?xml version="1.0" encoding="UTF-8"?>
<svg width="512px" height="512px" viewBox="0 0 512 512" xmlns="http://www.w3.org/2000/svg" xmlns:xlink="http://www.w3.org/1999/xlink" version="1.1">
 <!-- Generated by Pixelmator Pro 2.0.3 -->
 <path id="Path" d="M485.64 159.55 C472.628 129.827 454.109 102.836 431.06 80 408.104 57.262 381.15 38.956 351.55 26 290.44 -1 218.74 -0.38 159.14 26.31 129.628 39.535 102.776 58.031 79.9 80.89 57.297 103.987 39.057 130.982 26.06 160.57 12.778 190.629 5.944 223.138 6 256 6 291 12.93 324.17 26.8 354.42 39.971 384.03 58.587 410.903 81.68 433.64 104.614 456.15 131.589 474.132 161.19 486.64 191.218 499.461 223.539 506.045 256.19 505.99 290.28 505.08 322.74 497.99 352.83 484.72 382.272 471.826 409.122 453.684 432.07 431.18 454.782 408.569 473.045 381.893 485.91 352.54 499.37 322.58 506 290.12 506 256 506.137 222.769 499.196 189.89 485.64 159.55 Z M472.52 346.48 C460.359 374.19 443.088 399.362 421.61 420.68 399.98 441.985 374.623 459.139 346.8 471.29 318.161 483.821 287.334 490.59 256.08 491.21 225.486 491.307 195.196 485.133 167.08 473.07 110.409 449.262 65.011 404.648 40.22 348.4 27.22 319.93 20.74 288.94 20.74 256.03 20.691 225.201 27.074 194.705 39.481 166.487 51.71 138.515 69.019 113.048 90.53 91.38 111.965 69.681 137.297 52.216 165.2 39.9 222.625 14.432 288.12 14.323 345.63 39.6 402.154 64.129 447.356 109.062 472.22 165.44 484.866 193.961 491.341 224.832 491.22 256.03 491.26 288.06 485.07 318.45 472.52 346.48 Z" fill="#ecb390" fill-opacity="1" stroke="none"/>
 <path id="Path-1" d="M446.54 248.06 C441.64 207.97 409.54 178.9 370.26 178.9 368.45 178.9 366.62 178.9 364.78 179.09 362.42 179.25 360.01 179.5 357.66 179.86 355.945 180.151 354.216 180.351 352.48 180.46 348.584 186.067 343.632 190.86 337.9 194.57 331.43 198.79 325.43 188.43 331.9 184.24 336.952 180.958 341.194 176.576 344.31 171.42 344.2 170.51 344.12 169.55 344.07 168.42 343.458 157.412 340.585 146.649 335.63 136.8 325.883 117.413 308.246 103.173 287.24 97.73 280.837 96.039 274.243 95.182 267.62 95.18 258.851 95.159 250.149 96.7 241.92 99.73 225.234 105.872 211.238 117.684 202.38 133.1 198.52 139.73 195.38 140.99 191.23 140.99 188.87 140.93 186.524 140.618 184.23 140.06 178.563 138.772 172.771 138.118 166.96 138.11 166.03 138.11 165.07 138.11 164.11 138.17 142.891 138.994 122.985 148.657 109.213 164.82 95.44 180.982 89.057 202.169 91.61 223.25 91.833 225.158 91.88 227.083 91.75 229 96.38 236.59 102.16 244.48 110.6 247.44 113.291 248.378 116.154 248.72 118.99 248.44 125.43 247.84 131.67 244.38 136.52 240.06 144.82 232.63 150.06 222.57 155.78 213.2 162.678 201.672 171.363 191.313 181.51 182.51 182.36 180.62 184.36 178.6 187.38 176.6 192.14 173.45 197.19 170.49 202.09 167.6 204.15 166.37 206.23 165.16 208.31 163.93 235.375 154.193 265.4 157.287 289.91 172.34 291.55 173.34 293.22 174.34 294.91 175.27 304.14 180.59 311.02 188.83 315.91 198.51 326.19 218.97 326.71 244.18 343.26 261.28 353.421 271.687 366.867 278.262 381.32 279.89 384.47 280.203 387.641 280.257 390.8 280.05 L390.96 275.91 C390.988 275.263 391.346 274.675 391.907 274.353 392.469 274.03 393.157 274.018 393.73 274.32 L394.8 274.9 C395.129 274.947 395.445 275.059 395.73 275.23 L398.66 277.04 412.42 284.6 C412.986 284.921 413.347 285.511 413.376 286.161 413.404 286.811 413.096 287.431 412.56 287.8 L392.96 301.34 C392.37 301.741 391.604 301.775 390.98 301.428 390.356 301.081 389.981 300.413 390.01 299.7 L390.25 293.28 C386.547 293.453 382.835 293.336 379.15 292.93 373.855 292.38 368.643 291.212 363.62 289.45 353.143 285.869 343.562 280.07 335.53 272.45 326.88 264.09 321.07 253.84 317.01 242.61 312.82 231.07 310.65 218.71 305.5 207.53 305.42 207.37 305.34 207.18 305.26 207.01 303.145 202.684 300.136 198.856 296.43 195.78 296.08 195.45 295.72 195.15 295.43 194.87 291.749 191.617 287.857 188.61 283.78 185.87 283.317 185.637 282.887 185.345 282.5 185 269.5 176.58 255.92 172.36 241.92 172.36 229.31 172.36 216.6 175.9 204.1 182.78 194.933 188.146 186.669 194.923 179.61 202.86 163.83 220.56 156.81 246.78 134.12 257.72 129.361 260.057 124.183 261.417 118.89 261.72 112.222 262.155 105.583 260.509 99.89 257.01 94.283 253.451 89.423 248.836 85.58 243.42 64.53 273.62 59.49 307.32 71 341 85.57 383.88 116.51 409.66 160.46 415.55 166.196 416.342 171.979 416.747 177.77 416.76 192.26 416.909 206.62 414.013 219.92 408.26 239 400 255.45 385.44 269.1 364.86 270.337 362.861 271.837 361.038 273.56 359.44 Q283.05 345.67 291.7 331.38 302.76 313 312.36 293.9 C316.55 285.57 320.36 276.9 325.02 268.8 327.091 271.437 329.343 273.926 331.76 276.25 332.67 277.16 333.65 278.03 334.64 278.88 329.1 288.83 324.56 299.54 319.35 309.46 308.378 330.335 296.097 350.495 282.58 369.82 282.19 370.45 281.81 371.08 281.32 371.77 277.65 376.97 273.95 382.13 270.39 387.11 L264.11 395.91 264.99 398.48 C266.155 402.299 269.575 404.988 273.56 405.22 278.053 405.955 282.598 406.323 287.15 406.32 288.58 406.32 290 406.32 291.4 406.18 326.17 404.46 352.94 381.25 361.85 344.75 364.31 334.75 367.46 331.93 377.36 331.11 398.052 329.267 417.116 319.127 430.21 303 443 287.35 448.9 267.32 446.54 248.06 Z M168 400.43 C114.22 394.07 78.29 345.22 88.68 291.9 90.16 284.33 101.68 287.57 100.21 295.1 95.889 316.588 100.759 338.903 113.638 356.638 126.517 374.373 146.23 385.909 168 388.45 175.53 389.36 175.61 401.33 168 400.43 Z M417.69 234.66 L396.37 245.32 C395.737 245.638 394.98 245.571 394.412 245.148 393.845 244.724 393.566 244.017 393.69 243.32 L394.34 239.76 394.23 239.76 C390.095 239.835 385.977 240.3 381.93 241.15 373.939 242.819 366.323 245.941 359.46 250.36 355.506 252.868 351.881 255.862 348.67 259.27 348.079 258.756 347.521 258.205 347 257.62 344.42 254.952 342.174 251.98 340.31 248.77 351.339 238.159 365.173 230.924 380.18 227.92 384.806 226.985 389.51 226.49 394.23 226.44 395.063 226.41 395.893 226.55 396.67 226.85 L397.93 219.85 C398.048 219.204 398.494 218.666 399.107 218.431 399.72 218.196 400.411 218.298 400.93 218.7 L417.93 231.47 C418.447 231.859 418.731 232.485 418.682 233.131 418.633 233.776 418.26 234.352 417.69 234.66 Z" fill="#ecb390" fill-opacity="1" stroke="none"/>
</svg>
