<svg id="Layer_1" data-name="Layer 1" xmlns="http://www.w3.org/2000/svg" viewBox="0 0 512 512"><defs><style>.cls-1{fill:#333;}</style></defs><path class="cls-1" d="M485.64,159.55A257.15,257.15,0,0,0,431.06,80a262.62,262.62,0,0,0-79.51-54C290.44-1,218.74-.38,159.14,26.31A266,266,0,0,0,79.9,80.89a268.05,268.05,0,0,0-53.84,79.68A235.13,235.13,0,0,0,6,256c0,35,6.93,68.17,20.8,98.42a258.77,258.77,0,0,0,54.88,79.22,255.46,255.46,0,0,0,79.51,53,240.9,240.9,0,0,0,95,19.35c34.09-.91,66.55-8,96.64-21.27a265,265,0,0,0,79.24-53.54,255.94,255.94,0,0,0,53.84-78.64C499.37,322.58,506,290.12,506,256A234.07,234.07,0,0,0,485.64,159.55ZM472.52,346.48a241,241,0,0,1-50.91,74.2,248.13,248.13,0,0,1-74.81,50.61,238.09,238.09,0,0,1-90.72,19.92,223.93,223.93,0,0,1-89-18.14A240.38,240.38,0,0,1,40.22,348.4c-13-28.47-19.48-59.46-19.48-92.37a221.59,221.59,0,0,1,18.74-89.54A247.11,247.11,0,0,1,90.53,91.38,242.73,242.73,0,0,1,165.2,39.9a223.36,223.36,0,0,1,180.43-.3A244.91,244.91,0,0,1,472.22,165.44a221.38,221.38,0,0,1,19,90.59C491.26,288.06,485.07,318.45,472.52,346.48Z"/><path class="cls-1" d="M446.54,248.06c-4.9-40.09-37-69.16-76.28-69.16-1.81,0-3.64,0-5.48.19-2.36.16-4.77.41-7.12.77a49.57,49.57,0,0,1-5.18.6,52.47,52.47,0,0,1-14.58,14.11c-6.47,4.22-12.47-6.14-6-10.33a39.89,39.89,0,0,0,12.41-12.82c-.11-.91-.19-1.87-.24-3a80.27,80.27,0,0,0-8.44-31.62,75.3,75.3,0,0,0-48.39-39.07,76.9,76.9,0,0,0-19.62-2.55,73.88,73.88,0,0,0-25.7,4.55,75.8,75.8,0,0,0-39.54,33.37c-3.86,6.63-7,7.89-11.15,7.89a33.15,33.15,0,0,1-7-.93,78.38,78.38,0,0,0-17.27-1.95c-.93,0-1.89,0-2.85.06a76,76,0,0,0-72.5,85.08,31.29,31.29,0,0,1,.14,5.75c4.63,7.59,10.41,15.48,18.85,18.44a19.63,19.63,0,0,0,8.39,1c6.44-.6,12.68-4.06,17.53-8.38,8.3-7.43,13.54-17.49,19.26-26.86a126.88,126.88,0,0,1,25.73-30.69c.85-1.89,2.85-3.91,5.87-5.91,4.76-3.15,9.81-6.11,14.71-9,2.06-1.23,4.14-2.44,6.22-3.67a94.68,94.68,0,0,1,81.6,8.41c1.64,1,3.31,2,5,2.93,9.23,5.32,16.11,13.56,21,23.24,10.28,20.46,10.8,45.67,27.35,62.77a63.06,63.06,0,0,0,38.06,18.61,57.73,57.73,0,0,0,9.48.16l.16-4.14a1.89,1.89,0,0,1,2.77-1.59l1.07.58a2.48,2.48,0,0,1,.93.33l2.93,1.81,13.76,7.56a1.89,1.89,0,0,1,.14,3.2l-19.6,13.54a1.89,1.89,0,0,1-2.95-1.64l.24-6.42a71,71,0,0,1-11.1-.35,68.22,68.22,0,0,1-15.53-3.48,77,77,0,0,1-28.09-17c-8.65-8.36-14.46-18.61-18.52-29.84-4.19-11.54-6.36-23.9-11.51-35.08-.08-.16-.16-.35-.24-.52a34,34,0,0,0-8.83-11.23c-.35-.33-.71-.63-1-.91a111.67,111.67,0,0,0-11.65-9,5.9,5.9,0,0,1-1.28-.87c-13-8.42-26.58-12.64-40.58-12.64-12.61,0-25.32,3.54-37.82,10.42a101.19,101.19,0,0,0-24.49,20.08c-15.78,17.7-22.8,43.92-45.49,54.86a39.7,39.7,0,0,1-15.23,4,32.28,32.28,0,0,1-19-4.71,51.17,51.17,0,0,1-14.31-13.59C64.53,273.62,59.49,307.32,71,341c14.57,42.88,45.51,68.66,89.46,74.55a128.7,128.7,0,0,0,17.31,1.21,103.48,103.48,0,0,0,42.15-8.5C239,400,255.45,385.44,269.1,364.86a26.16,26.16,0,0,1,4.46-5.42q9.49-13.77,18.14-28.06Q302.76,313,312.36,293.9c4.19-8.33,8-17,12.66-25.1a72.27,72.27,0,0,0,6.74,7.45c.91.91,1.89,1.78,2.88,2.63-5.54,9.95-10.08,20.66-15.29,30.58a559.53,559.53,0,0,1-36.77,60.36c-.39.63-.77,1.26-1.26,1.95-3.67,5.2-7.37,10.36-10.93,15.34l-6.28,8.8.88,2.57a9.54,9.54,0,0,0,8.57,6.74,83.83,83.83,0,0,0,13.59,1.1c1.43,0,2.85,0,4.25-.14,34.77-1.72,61.54-24.93,70.45-61.43,2.46-10,5.61-12.82,15.51-13.64A76.86,76.86,0,0,0,430.21,303C443,287.35,448.9,267.32,446.54,248.06ZM168,400.43c-53.78-6.36-89.71-55.21-79.32-108.53,1.48-7.57,13-4.33,11.53,3.2A78.42,78.42,0,0,0,168,388.45C175.53,389.36,175.61,401.33,168,400.43ZM417.69,234.66l-21.32,10.66a1.87,1.87,0,0,1-2.68-2l.65-3.56h-.11a65.65,65.65,0,0,0-12.3,1.39,66.69,66.69,0,0,0-22.47,9.21,56.15,56.15,0,0,0-10.79,8.91,18.59,18.59,0,0,1-1.67-1.65,45.87,45.87,0,0,1-6.69-8.85,80.22,80.22,0,0,1,39.87-20.85,74.94,74.94,0,0,1,14.05-1.48,6.16,6.16,0,0,1,2.44.41l1.26-7a1.88,1.88,0,0,1,3-1.15l17,12.77A1.9,1.9,0,0,1,417.69,234.66Z"/></svg>