<svg xmlns="http://www.w3.org/2000/svg" version="1.1" xmlns:xlink="http://www.w3.org/1999/xlink" xmlns:svgjs="http://svgjs.com/svgjs" width="1920" height="1080" preserveAspectRatio="none" viewBox="0 0 1920 1080"><g mask="url(&quot;#SvgjsMask1020&quot;)" fill="none"><rect width="1920" height="1080" x="0" y="0" fill="#0e2a47"></rect><path d="M0,516.796C97.692,506.485,193.815,483.156,274.421,427.007C353.191,372.137,394.718,284.423,448.114,204.647C512.513,108.431,635.025,25.659,619.88,-89.125C604.765,-203.685,459.033,-245.173,377.906,-327.458C303.373,-403.054,255.101,-501.368,162.411,-553.122C54.553,-613.344,-69.446,-674.719,-189.11,-644.05C-309.369,-613.228,-377.863,-491.571,-455.556,-394.741C-530.442,-301.409,-640.222,-210.427,-632.866,-90.992C-625.461,29.25,-477.424,85.953,-419.447,191.555C-367.771,285.68,-399.215,423.355,-314.359,489.153C-229.513,554.943,-106.772,528.066,0,516.796" fill="#0b2239"></path><path d="M1920 1848.816C2060.563 1829.992 2165.013 1723.435 2286.65 1650.519 2412.913 1574.8310000000001 2593.691 1549.29 2647.952 1412.444 2702.419 1275.079 2586.7129999999997 1132.404 2548.712 989.605 2515.81 865.967 2515.351 732.8620000000001 2439.654 629.717 2360.6059999999998 522.006 2250.842 422.74300000000005 2118.622 403.557 1990.098 384.90700000000004 1886.136 505.51300000000003 1758.775 530.917 1612.863 560.022 1416.3319999999999 446.79999999999995 1322.589 562.34 1227.6599999999999 679.342 1362.1970000000001 851.907 1376.662 1001.88 1387.0549999999998 1109.627 1380.363 1212.31 1395.618 1319.477 1417.069 1470.164 1377.175 1649.841 1484.2939999999999 1757.972 1590.863 1865.548 1769.915 1868.9160000000002 1920 1848.816" fill="#113255"></path></g><defs><mask id="SvgjsMask1020"><rect width="1920" height="1080" fill="#ffffff"></rect></mask></defs></svg>