<?xml version="1.0" encoding="UTF-8"?>
<svg width="3730px" height="512px" viewBox="0 0 3730 512" xmlns="http://www.w3.org/2000/svg" xmlns:xlink="http://www.w3.org/1999/xlink" version="1.1">
 <!-- Generated by Pixelmator Pro 2.0.3 -->
 <path id="Path" d="M1905.85 223 C1905.292 222.679 1904.618 222.629 1904.018 222.862 1903.418 223.095 1902.956 223.587 1902.76 224.2 1902.29 226.2 1901.84 228.2 1901.37 230.15 1901.074 230.13 1900.776 230.13 1900.48 230.15 1895.89 230.188 1891.31 230.61 1886.79 231.41 1872.167 233.898 1858.39 239.973 1846.69 249.09 1848.26 251.833 1850.183 254.358 1852.41 256.6 1852.869 257.099 1853.367 257.56 1853.9 257.98 1857.329 255.069 1861.06 252.535 1865.03 250.42 1872.05 246.68 1879.606 244.049 1887.43 242.62 1891.164 241.941 1894.946 241.556 1898.74 241.47 Q1898.26 243.47 1897.81 245.47 C1897.46 246.87 1899.06 247.82 1900.5 247.14 L1922.58 236.49 C1923.164 236.297 1923.585 235.786 1923.664 235.176 1923.743 234.566 1923.465 233.965 1922.95 233.63 Z" fill="#333333" fill-opacity="1" stroke="none"/>
 <path id="Path-1" d="M1669.33 367.68 C1625.62 363.18 1599.38 326.81 1611.44 288.41 1613.44 282.02 1602.6 279.27 1600.56 285.72 1586.27 331.1 1617.02 372.58 1668.37 377.85 1675.71 378.62 1676.55 368.44 1669.33 367.68 Z" fill="#333333" fill-opacity="1" stroke="none"/>
 <path id="Path-2" d="M1982 176.42 C1971.834 151.621 1956.492 129.276 1937 110.88 1917.34 92.19 1893.85 77.46 1866.64 66.46 1839.43 55.46 1810.24 50 1779 49.93 1747.58 49.778 1716.397 55.387 1687 66.48 1658.573 77.055 1632.064 92.201 1608.52 111.32 1585.893 129.713 1566.68 151.946 1551.76 177 Q1529.56 214.41 1525.66 255.78 C1522.95 284.78 1526.83 311.92 1537.37 337.06 1547.643 361.844 1563.095 384.146 1582.69 402.47 Q1612.19 430.13 1653.13 445.95 1694.07 461.77 1740.23 461.62 C1802.294 460.126 1862.173 438.413 1910.77 399.78 1933.364 381.778 1952.545 359.867 1967.4 335.09 1982.015 310.974 1990.97 283.857 1993.59 255.78 1996.294 228.776 1992.314 201.522 1982 176.42 Z M1929 295 C1914.593 308.916 1895.774 317.356 1875.8 318.86 1866.19 319.53 1862.91 321.94 1859.8 330.42 1848.3 361.35 1820.58 381.03 1786.95 382.55 1785.56 382.65 1784.21 382.66 1782.84 382.67 1778.49 382.676 1774.146 382.369 1769.84 381.75 1767.97 381.51 1763.56 380.9 1762.12 376.03 1761.9 375.3 1761.69 374.58 1761.48 373.84 Q1764.86 370.12 1768.24 366.39 C1772.07 362.13 1776.05 357.77 1780 353.39 1780.482 352.857 1780.936 352.3 1781.36 351.72 1795.814 335.485 1809.269 318.386 1821.65 300.52 1827.47 292.12 1832.73 283.02 1838.84 274.58 1837.941 273.883 1837.08 273.138 1836.26 272.35 1834.139 270.4 1832.17 268.29 1830.37 266.04 1825.22 272.96 1820.84 280.25 1816.15 287.33 1809.01 298.15 1801.3 308.73 1793.23 319.11 1786.9 327.21 1780.38 335.11 1773.5 342.92 1771.73 344.249 1770.137 345.798 1768.76 347.53 1753.96 364.99 1736.93 377.33 1717.84 384.43 1704.612 389.316 1690.612 391.782 1676.51 391.71 1670.965 391.701 1665.426 391.367 1659.92 390.71 1618.03 385.8 1590.28 363.98 1579.63 327.51 1571.24 298.82 1578.82 270.13 1601.36 244.42 1604.72 249.119 1609.026 253.063 1614 256 1619.494 259.028 1625.741 260.416 1632 260 1637.158 259.727 1642.231 258.573 1647 256.59 1669.72 247.29 1678.63 225.03 1695.24 210.01 1702.819 203.203 1711.307 197.482 1720.46 193.01 1733.1 187.19 1745.57 184.19 1757.77 184.19 1771.224 184.189 1784.416 187.906 1795.89 194.93 1796.24 195.23 1796.631 195.479 1797.05 195.67 1800.732 197.977 1804.244 200.543 1807.56 203.35 1807.84 203.61 1808.14 203.85 1808.47 204.11 1811.726 206.643 1814.334 209.913 1816.08 213.65 1816.162 213.784 1816.226 213.929 1816.27 214.08 1820.36 223.57 1821.46 234.08 1824.58 243.83 1827.58 253.33 1832.42 262.05 1840.07 269.14 1847.481 275.778 1856.257 280.71 1865.78 283.59 1870.56 285.087 1875.483 286.076 1880.47 286.54 1883.973 286.873 1887.494 286.98 1891.01 286.86 1891.01 288.76 1891.01 290.65 1891.09 292.55 1891.09 293.94 1892.89 294.55 1894.19 293.65 L1907.9 283.48 1908.06 283.37 1910.06 282.02 C1910.216 281.907 1910.351 281.768 1910.46 281.61 L1910.57 281.52 1913.57 279.29 C1914.094 278.975 1914.385 278.384 1914.316 277.777 1914.247 277.17 1913.831 276.659 1913.25 276.47 L1893.64 269.54 C1893.038 269.317 1892.366 269.385 1891.822 269.726 1891.278 270.067 1890.922 270.641 1890.86 271.28 L1890.86 275.7 C1888.428 275.759 1885.994 275.682 1883.57 275.47 1869.9 274.2 1857.15 268.47 1848.36 259.71 1833.77 245.21 1835.27 223.83 1827.02 206.46 1823.183 198.082 1816.734 191.174 1808.64 186.77 1807.09 185.97 1805.58 185.13 1804.05 184.26 1790.97 176.6 1774.68 172.37 1757.31 172.37 1746.708 172.35 1736.165 173.938 1726.04 177.08 1723.94 178.08 1721.85 179.08 1719.75 180.19 1714.75 182.62 1709.66 185.19 1704.84 187.81 1701.76 189.51 1699.67 191.23 1698.73 192.81 1688.406 200.086 1679.213 208.847 1671.45 218.81 1665.17 226.81 1659.34 235.32 1650.74 241.61 1645.74 245.29 1639.45 248.24 1633.14 248.73 1630.445 248.969 1627.73 248.69 1625.14 247.91 1617.23 245.38 1612.34 238.67 1608.43 232.24 1608.742 230.63 1608.853 228.987 1608.76 227.35 1608.07 208.6 1616.15 190.56 1631.54 176.69 1646.45 163.426 1665.535 155.805 1685.48 155.15 L1688.25 155.15 C1693.789 155.149 1699.315 155.712 1704.74 156.83 1706.941 157.316 1709.186 157.581 1711.44 157.62 1715.44 157.62 1718.57 156.54 1722.83 150.94 1733.157 137.507 1747.41 127.623 1763.61 122.66 1771.75 120.097 1780.236 118.806 1788.77 118.83 1795.067 118.822 1801.344 119.554 1807.47 121.01 1827.91 125.91 1843.27 138.01 1851.02 154.16 1855.032 162.524 1856.98 171.728 1856.7 181 L1856.7 183.5 C1853.174 187.993 1848.746 191.696 1843.7 194.37 1837.16 197.98 1842.14 206.73 1848.7 203.15 1854.414 200.055 1859.549 195.995 1863.88 191.15 1865.27 191.08 1866.98 190.91 1868.88 190.66 1871.23 190.33 1873.51 190.13 1875.82 190 1877.6 189.91 1879.37 189.85 1881.12 189.85 1919.01 189.85 1947.65 214.49 1949.12 248.47 1949.91 264.79 1942.55 281.76 1929 295 Z" fill="#333333" fill-opacity="1" stroke="none"/>
 <path id="Path-3" d="M312.37 310.66 C310.986 307.352 311.084 303.611 312.64 300.38 313.716 297.56 315.198 294.912 317.04 292.52 333.75 278.723 347.768 261.958 358.39 243.07 368.71 225.06 375.017 205.033 376.88 184.36 378.693 165.006 376.105 145.492 369.31 127.28 362.787 109.6 352.825 93.388 340 79.58 326.969 65.721 311.379 54.515 294.09 46.58 276.11 38.219 256.594 33.673 236.77 33.23 Q172.52 31.48 108.28 29.56 C104.037 29.309 99.866 30.747 96.68 33.56 93.52 36.373 91.618 40.335 91.4 44.56 Q73.73 256.12 56.08 469.66 C55.67 474.21 56.83 477.94 59.51 480.78 62.19 483.62 65.79 484.96 70.39 484.78 Q105.92 483.68 141.48 482.67 C145.793 482.642 149.937 480.984 153.08 478.03 156.202 475.092 158.093 471.078 158.37 466.8 Q163.31 407.88 168.25 349.11 C168.492 344.857 170.391 340.869 173.54 338 176.696 335.092 180.849 333.506 185.14 333.57 L197.61 333.46 C201.19 333.529 204.62 334.91 207.25 337.34 210.36 339.981 212.658 343.448 213.88 347.34 Q233.47 406.73 253.08 465.53 C254.421 469.567 257.084 473.034 260.64 475.37 264.292 477.894 268.664 479.168 273.1 479 Q312.7 478 352.32 476.93 C356.9 476.83 360.22 475.42 362.32 472.77 364.42 470.12 364.79 466.77 363.49 462.84 Q337.93 387.2 312.37 310.66 Z M257.94 235.93 Q240.25 256.87 210.94 256.93 L191.6 256.93 C187.02 256.93 183.39 255.49 180.73 252.63 178.07 249.77 176.9 246.07 177.29 241.57 Q182.29 182.57 187.22 123.83 C187.463 119.626 189.366 115.691 192.51 112.89 195.699 110.067 199.867 108.606 204.12 108.82 L223.45 109.17 C234.28 109.37 243.45 111.64 250.97 116.05 258.277 120.231 264.514 126.05 269.19 133.05 273.864 140.188 277.108 148.166 278.74 156.54 280.503 165.433 280.783 174.556 279.57 183.54 Q275.64 215 257.94 235.93 Z" fill="#333333" fill-opacity="1" stroke="none"/>
 <path id="Path-4" d="M1096.15 50.54 Q1060.6 50.07 1025.04 49.54 C1020.843 49.35 1016.719 50.693 1013.44 53.32 1010.345 55.805 1008.427 59.47 1008.15 63.43 Q999.76 154.93 991.39 246.65 C991.03 250.82 989.76 253.22 987.59 254 985.42 254.78 982.82 253.82 979.75 251.17 Q873.6 153.16 767.42 51.71 C764.32 48.97 761.75 47.95 759.57 48.71 757.39 49.47 756.18 51.93 755.78 56.14 Q738.7 246.43 721.61 437.87 655.22 247.21 588.83 51.76 C587.48 47.83 585.83 45.83 583.74 45.76 581.65 45.69 579.64 47.64 577.61 51.5 Q472 252.65 366.47 462.79 C364.47 466.79 364.27 470.17 365.94 472.7 367.61 475.23 370.71 476.51 375.26 476.37 Q401.78 475.71 428.26 475.07 C432.945 474.928 437.497 473.477 441.4 470.88 445.334 468.442 448.536 464.987 450.67 460.88 Q458.55 445.53 466.4 430.25 C470.855 421.941 479.379 416.614 488.8 416.25 Q537.8 415.41 586.75 414.63 C591.17 414.527 595.515 415.791 599.19 418.25 602.72 420.471 605.392 423.824 606.77 427.76 Q612.01 442.61 617.23 457.4 C618.972 461.292 621.82 464.585 625.42 466.87 629.096 469.318 633.446 470.556 637.86 470.41 Q677.18 469.6 716.48 468.84 C720.37 468.75 723.22 467.61 725.28 465.73 727.936 467.639 731.152 468.61 734.42 468.49 L805.55 467.18 C809.8 467.24 813.924 465.739 817.14 462.96 820.241 460.349 822.153 456.594 822.44 452.55 Q830.44 363.55 838.44 274.7 C838.81 270.49 840.07 268.02 842.23 267.25 844.39 266.48 846.98 267.46 850.08 270.1 Q956.23 368.98 1062.41 464.84 C1065.41 467.44 1068.11 468.34 1070.24 467.57 1072.37 466.8 1073.67 464.32 1074.04 460.19 Q1092.28 262 1110.46 64.75 C1110.954 61.015 1109.674 57.264 1107 54.61 1104.33 52 1100.73 50.61 1096.15 50.54 Z M572 337.61 C569.91 340.19 566.56 341.44 562 341.52 L527.07 341.82 C522.45 341.88 519.39 340.62 517.74 338.07 516.09 335.52 516.26 332.26 518.28 328.34 Q531.44 302.84 544.57 277.5 547.57 271.59 550.7 271.6 C552.7 271.6 554.49 273.6 555.79 277.47 Q564.49 302.74 573.18 327.93 C574.5 331.82 574.17 335.05 572 337.61 Z" fill="#333333" fill-opacity="1" stroke="none"/>
 <path id="Path-5" d="M1463.52 114.08 Q1434.87 86.65 1394.86 70.55 1354.85 54.45 1308.77 52.91 1239.53 52.27 1170.27 51.46 C1166.074 51.269 1161.952 52.609 1158.67 55.23 1155.608 57.695 1153.695 61.312 1153.38 65.23 Q1135.72 256.38 1118.05 448.33 1117.48 454.54 1121.48 458.39 C1124.15 460.98 1127.79 462.25 1132.36 462.18 Q1201.62 461.33 1270.86 460.63 C1302.082 460.48 1332.998 454.466 1362 442.9 1389.769 431.959 1415.614 416.657 1438.56 397.57 1460.403 379.393 1478.904 357.542 1493.23 333 Q1514.46 296.53 1518.15 256.86 1522.08 214.94 1507.15 178.26 C1497.306 154.024 1482.436 132.149 1463.52 114.08 Z M1396 308.64 C1389.791 324.254 1380.848 338.636 1369.59 351.11 1358.418 363.378 1344.866 373.245 1329.76 380.11 Q1306.63 390.8 1277.3 390.98 L1241.13 391.23 C1236.54 391.23 1232.93 389.99 1230.25 387.4 1227.57 384.81 1226.47 381.51 1226.82 377.4 Q1238.03 256.51 1249.22 135.91 C1249.531 131.99 1251.445 128.373 1254.51 125.91 1257.781 123.266 1261.908 121.911 1266.11 122.1 L1302.29 122.33 Q1334.06 122.53 1355.55 133.74 C1369.252 140.71 1380.954 151.055 1389.55 163.8 1398.109 176.804 1403.865 191.448 1406.45 206.8 1409.318 223.34 1409.944 240.192 1408.31 256.9 1406.752 274.655 1402.605 292.086 1396 308.64 Z" fill="#333333" fill-opacity="1" stroke="none"/>
 <path id="Path-6" d="M2386.56 62.62 C2385.56 53.72 2380.82 51.52 2376.94 51.16 2371.66 50.79 2367.18 53.49 2363 59.32 Q2288.08 167.98 2213.11 275.32 C2212.66 275.99 2212.27 276.4 2212.11 276.7 2211.836 276.364 2211.595 276.002 2211.39 275.62 Q2161.27 166.8 2111.17 58.54 C2108.09 52.86 2103.89 50.24 2098.97 50.74 2093.54 51.31 2089.77 55.14 2087.68 62.04 Q2023.56 253.04 1959.43 443.34 C1957.66 448.76 1958.43 453.78 1961.61 457.77 1963.88 460.61 1968.38 464.06 1976.93 464.05 L2024.93 464.16 C2031.061 464.23 2037.063 462.407 2042.12 458.94 2047.25 455.45 2050.71 451.11 2052.31 446.1 Q2076.31 375.1 2100.31 303.93 2136.2 378.18 2172.1 452.71 C2175.68 459.49 2180.78 460.95 2184.41 460.97 2188.04 460.99 2193.41 459.57 2198.41 452.64 Q2250.41 374.96 2302.49 296.85 2313.62 372.07 2324.78 447.41 C2325.503 452.649 2328.308 457.375 2332.56 460.52 2337.184 464.125 2342.898 466.047 2348.76 465.97 Q2384.95 466.27 2421.13 466.62 C2429.65 466.7 2434.85 463.32 2437.63 460.46 2441.491 456.628 2443.306 451.192 2442.52 445.81 Q2414.57 253.72 2386.56 62.62 Z M2427.18 452.54 C2426.77 452.98 2425.76 454 2422.35 453.96 Q2386.17 453.63 2349.98 453.35 C2347.289 453.409 2344.662 452.529 2342.55 450.86 2340.626 449.464 2339.346 447.352 2339 445 Q2327.53 367.42 2316.06 290 C2314.98 281.7 2310.48 279.51 2306.78 279.13 2306.42 279.105 2306.06 279.105 2305.7 279.13 2301.19 279.13 2296.95 281.83 2293.01 287.3 Q2239.73 367.3 2186.45 446.78 C2186.16 447.14 2185.95 447.46 2185.69 447.72 2185.58 447.52 2185.38 447.26 2185.25 446.98 Q2148.37 370.36 2111.5 294.06 C2108.41 288.35 2104.2 285.6 2099.26 286.22 2093.84 286.77 2090.12 290.61 2088.02 297.44 Q2063.34 370.58 2038.68 443.61 C2037.857 446.004 2036.218 448.033 2034.05 449.34 2031.733 450.932 2028.98 451.767 2026.17 451.73 L1978.12 451.62 C1974.7 451.62 1973.9 450.55 1973.56 450.17 1972.94 449.39 1972.4 448.26 1973.13 446 Q2036.56 257.55 2100 68.67 2149.1 174.82 2198.2 281.42 C2201.82 288.2 2207.07 289.62 2210.84 289.63 2214.61 289.64 2220.06 288.22 2225.06 281.34 Q2298.96 175.34 2372.85 68.34 2400.61 257.85 2428.4 448.28 C2428.734 449.815 2428.276 451.415 2427.18 452.54 Z" fill="#333333" fill-opacity="1" stroke="none"/>
 <path id="Path-7" d="M3369.47 29.61 Q3333.91 30.54 3298.35 31.42 C3292.142 31.51 3286.177 33.848 3281.56 38 3278.802 40.513 3276.68 43.646 3275.37 47.14 3275.67 44.247 3275.013 41.334 3273.5 38.85 3271.5 35.79 3267.33 32.21 3258.57 32.42 Q3232.38 33.05 3206.17 33.66 C3193.845 34.194 3182.703 41.156 3176.82 52 Q3130.45 142.44 3084.08 231.14 3053.44 142.6 3022.81 55.07 C3021 49.959 3017.519 45.608 3012.93 42.72 3008.064 39.559 3002.35 37.958 2996.55 38.13 Q2956.95 38.91 2917.33 39.64 C2908.57 39.81 2903.76 43.45 2901.24 46.47 2898.72 49.49 2896.14 54.74 2898.76 62.13 Q2968.48 259.6 3038.21 461.83 C3040.46 468.5 3044.21 471.96 3049.54 472.05 3054.87 472.14 3059.2 468.88 3062.64 462.34 Q3167.9 262.87 3273.15 55 C3273.438 54.348 3273.689 53.68 3273.9 53 3273.85 53.24 3273.8 53.47 3273.771 53.68 Q3256.1 257 3238.45 458.78 C3237.92 464.94 3239.62 470.15 3243.54 474.31 3247.46 478.47 3252.82 480.67 3259.26 480.82 Q3294.82 481.67 3330.38 482.58 C3336.506 482.868 3342.511 480.808 3347.17 476.82 3351.747 472.941 3354.569 467.383 3355 461.4 Q3372.64 257 3390.301 51 C3390.811 44.81 3389.081 39.4 3385.19 35.44 3381.301 31.48 3375.89 29.43 3369.47 29.61 Z M3260.39 50.22 Q3155.73 257 3051.07 454.9 2981.73 253.42 2912.38 57 C2912.16 56.24 2911.58 54.47 2912.25 53.7 2912.92 52.93 2915.2 52.7 2916.15 52.7 Q2955.76 52.03 2995.38 51.29 C2998.412 51.202 3001.396 52.058 3003.92 53.74 3006.363 55.234 3008.22 57.522 3009.18 60.22 Q3040.18 148.78 3071.18 238.32 C3075.65 251.57 3088.78 251.63 3095.6 238.32 Q3142.6 148.32 3189.53 56.7 C3191.021 53.908 3193.262 51.587 3196 50 3198.678 48.235 3201.794 47.248 3205 47.15 L3257.39 46 C3258.39 46 3260.57 46 3261.14 46.86 3261.71 47.72 3260.67 49.63 3260.39 50.22 Z M3340.75 461.07 C3340.665 463.339 3339.644 465.471 3337.93 466.96 3336.93 467.86 3335.08 469.06 3331.56 468.96 Q3296.01 468.1 3260.45 467.3 C3256.93 467.24 3255.38 465.96 3254.45 464.99 3252.993 463.383 3252.345 461.201 3252.69 459.06 Q3270.34 257 3288 53.34 C3288.092 51.048 3289.096 48.887 3290.79 47.34 3292.544 45.783 3294.826 44.954 3297.17 45.02 Q3332.74 44.2 3368.29 43.31 C3371.85 43.24 3373.4 44.46 3374.29 45.36 3375.18 46.26 3376.37 47.91 3376.06 51.29 Q3358.42 257 3340.75 461.07 Z" fill="#333333" fill-opacity="1" stroke="none"/>
 <path id="Path-8" d="M3626.69 399.25 Q3568.98 398.19 3511.3 397.17 C3507.78 397.11 3506.19 395.83 3505.3 394.83 3504.41 393.83 3503.24 392.19 3503.54 388.75 Q3505.01 371.38 3506.49 353.99 C3506.567 351.673 3507.585 349.488 3509.31 347.94 3511.066 346.409 3513.355 345.632 3515.68 345.78 L3599.89 346.78 C3606.071 346.954 3612.094 344.814 3616.78 340.78 3621.53 336.8 3624.674 331.232 3625.63 325.11 Q3629.44 301.92 3633.26 278.7 C3634.41 272.19 3633 266.45 3629.34 262.1 3625.68 257.75 3620.34 255.48 3613.77 255.5 L3523.3 255.5 C3519.81 255.5 3518.2 254.22 3517.3 253.24 3516.4 252.26 3515.3 250.59 3515.54 247.17 Q3520.73 185.74 3525.93 124.17 C3526.019 121.825 3527.038 119.611 3528.763 118.02 3530.488 116.428 3532.776 115.59 3535.12 115.69 Q3592.81 114.69 3650.51 113.58 C3656.779 113.555 3662.781 111.036 3667.19 106.58 3671.612 102.131 3674.025 96.07 3673.87 89.8 Q3673.96 66.35 3674.02 42.91 C3674.141 37.086 3671.884 31.464 3667.77 27.34 3663.63 23.34 3658.33 21.34 3651.91 21.57 Q3546.21 24.85 3440.47 27.75 C3434.238 27.83 3428.256 30.217 3423.68 34.45 3419.153 38.583 3416.362 44.279 3415.87 50.39 Q3398.2 257 3380.53 462 C3380 468.27 3381.73 473.56 3385.63 477.79 3389.53 482.02 3394.83 484.24 3401.36 484.44 Q3507.09 487.26 3612.81 490.44 C3618.973 490.723 3625.016 488.678 3629.74 484.71 3634.469 480.782 3637.611 475.271 3638.58 469.2 Q3642.38 446.06 3646.19 422.85 C3647.33 416.36 3645.96 410.59 3642.25 406.1 3638.54 401.61 3633.19 399.39 3626.69 399.25 Z M3624.51 467.61 C3624.158 470.167 3622.868 472.502 3620.89 474.16 3618.965 475.761 3616.498 476.56 3614 476.39 Q3508.28 473.39 3402.54 470.72 C3399.03 470.64 3397.42 469.35 3396.54 468.36 3395.064 466.735 3394.409 464.527 3394.76 462.36 Q3412.42 257 3430.08 50 C3430.132 47.671 3431.15 45.469 3432.89 43.92 3434.629 42.333 3436.916 41.483 3439.27 41.55 Q3545.01 38.84 3650.71 35.75 C3653.092 35.542 3655.449 36.361 3657.19 38 3658.883 39.738 3659.802 42.085 3659.74 44.51 Q3659.65 67.91 3659.58 91.28 C3659.58 94.59 3658.52 96.12 3657.58 97.07 3656.001 98.59 3653.869 99.396 3651.68 99.3 Q3593.97 100.49 3536.29 101.62 C3530.053 101.619 3524.049 103.993 3519.5 108.26 3514.931 112.411 3512.138 118.163 3511.7 124.32 Q3506.49 185.81 3501.3 247.13 C3500.77 253.41 3502.55 258.92 3506.4 263.03 3510.25 267.14 3515.63 269.38 3522.13 269.39 L3612.58 269.54 C3615.91 269.54 3617.3 270.65 3618.1 271.6 3618.9 272.55 3619.74 274.07 3619.19 277.4 Q3615.37 300.58 3611.56 323.72 C3611.202 326.278 3609.917 328.616 3607.95 330.29 3606.037 331.926 3603.574 332.774 3601.06 332.66 Q3558.95 332.25 3516.85 331.86 C3510.671 331.688 3504.661 333.893 3500.06 338.02 3495.466 342.042 3492.659 347.727 3492.26 353.82 Q3490.78 371.16 3489.31 388.52 C3488.78 394.87 3490.47 400.25 3494.41 404.52 3498.35 408.79 3503.6 411 3510.13 411.13 Q3567.82 412.24 3625.52 413.41 C3628.84 413.49 3630.32 414.73 3631.04 415.58 3631.76 416.43 3632.73 418.12 3632.14 421.42 Q3628.32 444.52 3624.51 467.61 Z" fill="#333333" fill-opacity="1" stroke="none"/>
 <path id="Path-9" d="M2859.56 104.9 C2840.06 85.77 2816.47 70.62 2789.34 59.69 2734.27 37.5 2667.1 39.2 2609.27 62.33 2580.854 73.68 2554.402 89.429 2530.88 109 2508.385 127.988 2489.26 150.64 2474.31 176 2459.51 201.25 2450.71 228.07 2448.14 255.78 2445.42 284.99 2449.33 312.68 2459.96 337.98 2470.221 363.06 2485.626 385.71 2505.18 404.47 2524.68 423.39 2548.45 438.47 2575.48 449.56 2603.275 460.778 2632.928 466.677 2662.9 466.95 2694.342 466.769 2725.51 461.097 2755 450.19 2783.384 439.725 2809.841 424.639 2833.3 405.54 2856.005 386.834 2875.139 364.176 2889.78 338.66 2904.515 313.29 2913.468 284.979 2916 255.75 2918.61 226.75 2914.79 198.69 2904.43 172.75 2894.526 147.17 2879.221 124.027 2859.56 104.9 Z M2877.68 333.38 C2863.84 357.465 2845.747 378.841 2824.28 396.47 2802.169 414.577 2777.184 428.858 2750.36 438.72 2722.685 448.969 2693.431 454.299 2663.92 454.47 2635.07 454.08 2607.46 448.67 2582.07 438.22 2556.39 427.77 2534.07 413.47 2515.66 395.78 2497.172 378.096 2482.634 356.701 2473 333 2463.06 309.16 2459.37 283.3 2461.93 255.81 2464.32 229.81 2472.66 204.55 2486.42 180.93 2500.517 156.939 2518.646 135.559 2540.01 117.73 2561.42 99.52 2586.39 84.78 2613.88 73.73 2641.413 62.677 2670.754 56.818 2700.42 56.45 2729.54 56.06 2757.22 61.01 2782.75 71.36 2807.468 81.036 2830.015 95.531 2849.08 114 2867.583 132.046 2882.024 153.831 2891.44 177.9 2901.11 202.3 2904.66 228.59 2902.23 255.74 2899.856 283.11 2891.474 309.62 2877.68 333.38 Z" fill="#333333" fill-opacity="1" stroke="none"/>
 <path id="Path-10" d="M2795 190 C2793.31 190 2791.59 190.07 2789.86 190.19 2787.66 190.33 2785.34 190.57 2783.13 190.88 2781.21 191.18 2779.61 191.34 2778.24 191.42 2774.083 196.287 2769.092 200.375 2763.5 203.49 2757.18 207.1 2752.3 198.32 2758.67 194.73 2763.576 191.96 2767.864 188.217 2771.27 183.73 2771.27 182.98 2771.27 182.13 2771.27 181.2 2771.557 171.943 2769.695 162.746 2765.83 154.33 2758.3 138.15 2743.38 126.2 2723.58 121.49 2717.626 120.095 2711.525 119.423 2705.41 119.49 2697.118 119.567 2688.889 120.94 2681.021 123.56 2665.186 128.727 2651.348 138.686 2641.42 152.06 2637.29 157.69 2634.24 158.78 2630.42 158.79 2628.228 158.756 2626.044 158.508 2623.9 158.05 2618.635 156.979 2613.273 156.46 2607.9 156.5 2607.02 156.5 2606.1 156.5 2605.23 156.56 2585.771 157.399 2567.231 165.072 2552.87 178.23 2537.94 192.07 2530.11 209.86 2530.78 228.3 2530.857 229.917 2530.75 231.537 2530.46 233.13 2534.23 239.47 2539 246.13 2546.67 248.58 2549.183 249.37 2551.829 249.643 2554.45 249.38 2560.53 248.89 2566.62 245.98 2571.45 242.33 2579.77 236.12 2585.51 227.61 2591.56 219.73 2599.07 209.859 2607.977 201.135 2618 193.83 2619 192.24 2621 190.52 2623.95 188.83 2628.61 186.13 2633.62 183.65 2638.41 181.19 2640.41 180.13 2642.46 179.11 2644.52 178.06 2654.327 174.889 2664.563 173.243 2674.87 173.18 2691.7 173.08 2707.51 177.18 2720.22 184.8 2721.67 185.65 2723.22 186.45 2724.66 187.26 2732.88 191.71 2738.66 198.69 2742.5 206.91 2750.56 224.25 2749.04 245.71 2763.22 260.24 2771.74 269.02 2784.22 274.78 2797.39 276.12 2800.336 276.394 2803.297 276.447 2806.25 276.28 2806.4 275.09 2806.56 273.92 2806.72 272.74 2806.837 272.158 2807.217 271.662 2807.749 271.398 2808.281 271.134 2808.905 271.131 2809.44 271.39 L2810.39 271.89 C2810.687 271.932 2810.974 272.023 2811.24 272.16 L2813.85 273.71 Q2819.99 276.97 2826.13 280.19 C2826.633 280.475 2826.934 281.019 2826.909 281.597 2826.883 282.175 2826.536 282.69 2826.01 282.93 L2806.63 294.45 C2805.36 295.15 2803.8 294.36 2803.98 293.04 2804.22 291.21 2804.47 289.39 2804.71 287.57 2801.257 287.691 2797.799 287.58 2794.36 287.24 2789.505 286.784 2784.718 285.778 2780.09 284.24 2770.783 281.305 2762.244 276.338 2755.09 269.7 2747.61 262.58 2743.01 253.88 2740.09 244.34 2737.09 234.54 2736 224.05 2732.04 214.58 2731.969 214.437 2731.905 214.29 2731.85 214.14 2730.192 210.422 2727.66 207.16 2724.47 204.63 2724.19 204.362 2723.896 204.108 2723.591 203.87 2720.379 201.084 2716.97 198.534 2713.391 196.24 2712.977 196.055 2712.595 195.805 2712.261 195.5 2701.175 188.553 2688.343 184.901 2675.261 184.97 2663.461 184.97 2651.261 188.07 2639.071 193.92 2630.164 198.427 2621.925 204.148 2614.591 210.92 2598.451 225.92 2589.841 247.92 2567.771 257.13 2563.149 259.1 2558.218 260.245 2553.201 260.51 2547.115 260.91 2541.046 259.519 2535.741 256.51 2530.869 253.632 2526.666 249.749 2523.411 245.12 2501.511 270.46 2494.171 298.63 2502.301 326.87 2512.611 362.8 2539.591 384.56 2580.231 389.87 2585.573 390.579 2590.953 390.963 2596.341 391.02 2610.014 391.218 2623.607 388.899 2636.441 384.18 2654.971 377.33 2671.511 365.18 2685.861 347.85 2687.208 346.15 2688.752 344.615 2690.461 343.28 2697.081 335.57 2703.461 327.65 2709.611 319.62 Q2721.401 304.08 2731.851 287.89 C2736.431 280.83 2740.631 273.48 2745.641 266.6 2747.401 268.844 2749.316 270.962 2751.371 272.94 2752.151 273.71 2752.971 274.45 2753.861 275.18 2747.861 283.64 2742.861 292.73 2737.181 301.13 2725.212 318.917 2712.157 335.95 2698.091 352.13 2697.661 352.66 2697.281 353.18 2696.761 353.77 2692.921 358.16 2689.061 362.49 2685.341 366.68 L2678.791 374.07 C2678.991 374.8 2679.201 375.53 2679.401 376.25 2680.801 381.16 2685.081 381.78 2686.911 382.02 2691.09 382.67 2695.312 383.004 2699.541 383.02 2700.881 383.02 2702.171 383.02 2703.541 382.94 2736.191 381.79 2763.071 362.31 2774.221 331.27 2777.321 322.74 2780.481 320.38 2789.791 319.72 2809.317 318.262 2827.659 309.8 2841.441 295.89 2854.571 282.57 2861.681 265.4 2860.981 248.89 2859.571 214.5 2831.771 189.79 2795.001 190 Z M2588.5 377.21 C2538.68 371.44 2508.81 330.45 2522.68 285.82 2524.68 279.5 2535.23 282.21 2533.23 288.53 2521.54 326.28 2547.03 362.29 2589.43 367.14 2596.42 368 2595.61 378 2588.5 377.21 Z M2835.05 237.47 L2814.27 246.61 C2812.9 247.21 2811.52 246.19 2811.92 244.88 L2812.81 241.88 2812.7 241.88 C2808.803 241.959 2804.92 242.364 2801.09 243.09 2793.465 244.53 2786.121 247.187 2779.34 250.96 2775.47 253.067 2771.853 255.61 2768.56 258.54 2768.042 258.114 2767.56 257.646 2767.12 257.14 2764.949 254.879 2763.077 252.348 2761.55 249.61 2772.83 240.512 2786.211 234.388 2800.47 231.8 2804.852 231.016 2809.289 230.585 2813.74 230.51 2814.505 230.482 2815.269 230.601 2815.99 230.86 2816.56 228.86 2817.14 226.86 2817.71 224.86 2817.9 224.292 2818.343 223.845 2818.909 223.649 2819.475 223.453 2820.1 223.531 2820.6 223.86 Q2828.09 229.29 2835.6 234.74 C2836.042 235.114 2836.246 235.7 2836.131 236.267 2836.017 236.835 2835.603 237.296 2835.05 237.47 Z" fill="#333333" fill-opacity="1" stroke="none"/>
</svg>
